:SAMPLES-PER-SECOND 30
:FRAME-RANGE 1-668
:FULLY-SPECIFIED
:DEGREES
522
root  -21.0353 39.0374 31.5375 -171.361 -43.8358 -176.399
RightUpLeg  -21.5973 1.48358 -8.53034
RightLeg  20.4785 0.430155 -0.0304814
RightFoot  -14.2033 0.195686 11.6684
RightToes  5.38607e-012 1.2921e-014 -6.02303e-014
Spine  2.62395 -1.42659 -2.38306
Spine1  5.72878 -1.09044 -1.14334
HEad  -0.440913 -44.2261 10.7088
LeftShoulder1  1.07464 -1.21133 -17.3864
LeftArm  -6.62621 10.2284 -18.5952
LeftForeArm  12.3356 5.94542 -9.30524
LeftHand  -0.0285884 3.2894 0.617252
RightShoulder  1.80893 3.74944 19.2394
RightArm  -39.4115 32.0581 27.2914
RightForeArm  60.7455 -4.34498 -4.06636
RightHand  -0.306801 -4.52771 -40.9718
LeftUpLeg  -23.7685 -2.77315 7.66729
LeftLeg  21.6913 5.30045 2.74252
LeftFoot  -8.36517 0.22078 -6.56584
LeftToes  -6.11857e-011 5.00151e-011 -2.22593e-011
523
root  -21.258 39.0337 31.6914 -171.654 -43.2561 -176.149
RightUpLeg  -22.1898 2.7051 -6.9746
RightLeg  20.747 1.08056 0.244043
RightFoot  -15.0046 0.269713 11.5923
RightToes  5.38607e-012 1.2921e-014 -6.02303e-014
Spine  2.77877 -1.40417 -2.33463
Spine1  5.52452 -1.05909 -1.1063
HEad  -0.927715 -44.1854 11.1662
LeftShoulder1  1.07262 -1.18102 -17.5117
LeftArm  -6.76557 10.6016 -18.5765
LeftForeArm  12.1068 5.69748 -9.21142
LeftHand  -0.0320061 3.23004 0.809127
RightShoulder  1.81802 3.76793 19.3064
RightArm  -39.5509 32.1565 26.9767
RightForeArm  61.5191 -4.31426 -4.09084
RightHand  -0.323955 -4.49871 -41.8005
LeftUpLeg  -23.7013 -2.85508 7.45494
LeftLeg  22.2488 5.88892 3.01378
LeftFoot  -8.71093 0.196604 -6.2871
LeftToes  -6.11857e-011 5.00151e-011 -2.22593e-011
524
root  -21.4519 38.9742 31.791 -171.654 -42.8876 -176.401
RightUpLeg  -22.4309 3.37996 -6.10886
RightLeg  20.5867 3.14764 1.10023
RightFoot  -15.8309 0.410818 13.1787
RightToes  5.38607e-012 1.2921e-014 -6.02303e-014
Spine  2.70828 -1.53334 -2.65978
Spine1  5.51771 -1.17637 -1.08763
HEad  -0.766162 -44.0816 10.9757
LeftShoulder1  1.07967 -1.15782 -17.8175
LeftArm  -6.91554 10.8383 -18.5273
LeftForeArm  12.0014 5.32121 -9.13007
LeftHand  -0.0365314 3.20399 1.0574
RightShoulder  1.81904 3.82337 19.1068
RightArm  -39.6147 32.3019 26.6816
RightForeArm  62.0017 -4.30324 -4.0587
RightHand  -0.572266 -3.88384 -42.9959
LeftUpLeg  -23.7545 -2.8237 6.8839
LeftLeg  23.1157 6.11542 3.20448
LeftFoot  -9.25656 0.16429 -5.97892
LeftToes  -6.11857e-011 5.00151e-011 -2.22593e-011
525
root  -21.6441 38.9671 31.8473 -171.672 -42.7596 -176.767
RightUpLeg  -22.3077 5.07651 -5.98848
RightLeg  20.2088 5.28586 1.9467
RightFoot  -15.3248 0.294427 11.4311
RightToes  5.38607e-012 1.2921e-014 -6.02303e-014
Spine  2.47205 -1.70856 -2.66426
Spine1  5.65006 -1.34018 -1.19698
HEad  0.297598 -44.0884 10.2132
LeftShoulder1  1.10003 -1.21745 -17.9601
LeftArm  -7.22577 10.9204 -18.6703
LeftForeArm  12.2464 5.0071 -9.00607
LeftHand  -0.0447115 3.30059 1.55387
RightShoulder  1.78097 3.67754 19.0897
RightArm  -40.3997 32.4487 26.3844
RightForeArm  63.7383 -4.1735 -4.45041
RightHand  -0.678797 -3.67698 -44.6088
LeftUpLeg  -23.3307 -2.91877 6.25306
LeftLeg  23.2265 6.28368 3.29666
LeftFoot  -9.52536 0.14085 -5.6078
LeftToes  -6.11857e-011 5.00151e-011 -2.22593e-011
526
root  -21.8081 38.9831 31.8535 -171.959 -42.9503 -176.913
RightUpLeg  -21.8854 8.27247 -6.59868
RightLeg  20.0526 4.92316 1.78307
RightFoot  -13.2321 0.0729726 9.85606
RightToes  5.38607e-012 1.2921e-014 -6.02303e-014
Spine  2.21016 -1.87425 -2.54635
Spine1  5.8857 -1.62254 -0.891705
HEad  1.87302 -44.3458 9.08135
LeftShoulder1  1.12661 -1.2644 -18.319
LeftArm  -7.63957 10.696 -18.9152
LeftForeArm  12.0796 4.74052 -8.86119
LeftHand  -0.0474936 3.26393 1.69552
RightShoulder  1.74296 3.51993 19.1201
RightArm  -41.0195 32.2634 25.573
RightForeArm  64.36 -4.13262 -4.55653
RightHand  -0.818485 -3.42102 -46.5047
LeftUpLeg  -22.7548 -2.99738 5.87039
LeftLeg  23.2002 6.17225 3.23915
LeftFoot  -9.73097 0.137049 -5.46447
LeftToes  -6.11857e-011 5.00151e-011 -2.22593e-011
527
root  -21.9685 38.9931 31.8299 -172.309 -43.4185 -176.915
RightUpLeg  -21.0714 8.67277 -6.72689
RightLeg  19.4646 3.34278 1.10504
RightFoot  -11.4347 -0.069263 10.5482
RightToes  5.38607e-012 1.2921e-014 -6.02303e-014
Spine  1.87433 -2.08382 -2.23849
Spine1  6.04992 -1.9626 -0.525145
HEad  3.67267 -44.5925 7.61106
LeftShoulder1  1.14986 -1.32267 -18.5268
LeftArm  -8.1164 10.5964 -19.584
LeftForeArm  11.9278 4.24599 -8.71263
LeftHand  -0.0532303 3.23747 2.00444
RightShoulder  1.68252 3.3315 18.9135
RightArm  -42.3414 31.8691 24.5326
RightForeArm  65.8057 -3.99326 -5.05028
RightHand  -1.00555 -3.08142 -48.3931
LeftUpLeg  -22.3335 -3.46546 5.67578
LeftLeg  23.3663 6.19833 3.27141
LeftFoot  -9.9268 0.124061 -5.23004
LeftToes  -6.11857e-011 5.00151e-011 -2.22593e-011
528
root  -22.1087 38.9929 31.7852 -172.66 -43.7746 -176.844
RightUpLeg  -20.3364 7.90317 -6.62045
RightLeg  19.2134 3.7956 1.26343
RightFoot  -11.1705 -0.0917378 10.4727
RightToes  5.38607e-012 1.2921e-014 -6.02303e-014
Spine  1.64127 -2.24069 -2.0771
Spine1  5.97355 -2.26834 -0.0397094
HEad  5.54923 -44.5165 6.24049
LeftShoulder1  1.15634 -1.34139 -18.5693
LeftArm  -8.91167 10.9621 -20.4782
LeftForeArm  12.5933 3.31178 -8.43166
LeftHand  -0.0599682 3.12081 2.28818
RightShoulder  1.60472 3.0985 18.589
RightArm  -43.8387 31.5608 23.1092
RightForeArm  67.6629 -3.83004 -5.58444
RightHand  -1.0714 -3.02266 -50.0659
LeftUpLeg  -21.9863 -4.08073 5.61368
LeftLeg  23.6392 6.42458 3.41375
LeftFoot  -10.1693 0.114029 -5.18989
LeftToes  -6.11857e-011 5.00151e-011 -2.22593e-011
529
root  -22.2232 38.9923 31.6956 -172.982 -43.8189 -176.574
RightUpLeg  -19.9239 7.34811 -6.28715
RightLeg  19.1708 4.19609 1.41484
RightFoot  -11.0531 -0.101159 10.2631
RightToes  5.38607e-012 1.2921e-014 -6.02303e-014
Spine  1.2205 -2.33606 -2.05761
Spine1  5.93046 -2.47232 0.368706
HEad  7.70641 -43.4737 4.83469
LeftShoulder1  1.15883 -1.3592 -18.5165
LeftArm  -9.9536 11.8045 -21.2084
LeftForeArm  13.3198 2.03872 -8.04935
LeftHand  -0.0707621 3.16008 2.90432
RightShoulder  1.55413 2.95144 18.3456
RightArm  -45.8055 31.1015 20.9743
RightForeArm  70.5814 -2.23846 -5.98895
RightHand  -0.621194 -3.99443 -49.9112
LeftUpLeg  -21.6872 -4.23478 5.76869
LeftLeg  23.8551 6.52584 3.49188
LeftFoot  -10.5799 0.0974977 -5.13213
LeftToes  -6.11857e-011 5.00151e-011 -2.22593e-011
530
root  -22.3012 38.9721 31.5575 -173.47 -43.9853 -176.093
RightUpLeg  -19.5399 7.22069 -5.74491
RightLeg  19.3065 4.12132 1.39688
RightFoot  -11.1544 -0.0920546 9.84799
RightToes  5.38607e-012 1.2921e-014 -6.02303e-014
Spine  1.04326 -2.49629 -2.37071
Spine1  5.56092 -2.82178 1.12832
HEad  10.2486 -41.0587 3.24693
LeftShoulder1  1.16084 -1.38682 -18.4131
LeftArm  -11.0036 13.0183 -21.5704
LeftForeArm  14.4699 0.563251 -7.65611
LeftHand  -0.0771133 2.90657 2.96727
RightShoulder  1.48863 2.71473 18.2161
RightArm  -47.5793 31.0093 18.3667
RightForeArm  72.774 -0.904518 -6.29469
RightHand  -0.399053 -4.47236 -49.6402
LeftUpLeg  -21.4971 -4.00242 6.15258
LeftLeg  24.3009 6.13963 3.36628
LeftFoot  -11.1229 0.0763508 -5.09699
LeftToes  -6.11857e-011 5.00151e-011 -2.22593e-011
531
root  -22.3692 38.9263 31.4046 -173.985 -44.3321 -175.63
RightUpLeg  -19.1605 7.4751 -5.26697
RightLeg  19.6466 3.68602 1.25196
RightFoot  -11.6715 -0.0509575 9.86734
RightToes  5.38607e-012 1.2921e-014 -6.02303e-014
Spine  1.07131 -2.70613 -2.81771
Spine1  5.01242 -3.24531 2.0089
HEad  13.2241 -37.0638 1.42493
LeftShoulder1  1.16541 -1.43616 -18.2392
LeftArm  -12.0977 14.3148 -21.7784
LeftForeArm  14.8339 -1.03435 -7.2896
LeftHand  -0.0894014 3.28412 4.11982
RightShoulder  1.37457 2.38707 17.5711
RightArm  -49.3205 30.7487 16.1385
RightForeArm  74.7454 0.303096 -6.65808
RightHand  -0.236621 -4.82288 -49.2033
LeftUpLeg  -21.4378 -3.97113 6.57273
LeftLeg  25.0283 5.73368 3.2589
LeftFoot  -11.8195 0.0488297 -5.26105
LeftToes  -6.11857e-011 5.00151e-011 -2.22593e-011
532
root  -22.4182 38.8539 31.2509 -174.603 -44.7466 -175.084
RightUpLeg  -18.9785 7.61351 -4.66912
RightLeg  20.462 3.21118 1.11552
RightFoot  -12.2834 -0.00361707 9.70689
RightToes  5.38607e-012 1.2921e-014 -6.02303e-014
Spine  1.26438 -2.79691 -3.11287
Spine1  4.53096 -3.49453 2.68413
HEad  15.4855 -32.0396 0.404741
LeftShoulder1  1.15043 -1.4241 -17.9643
LeftArm  -13.5444 15.0173 -22.2818
LeftForeArm  14.5839 -2.51876 -6.86848
LeftHand  -0.0978623 3.4381 4.94115
RightShoulder  1.26886 2.06226 17.0015
RightArm  -50.4786 29.5065 13.4832
RightForeArm  74.6642 2.74609 -6.18388
RightHand  -0.158656 -4.9883 -48.2161
LeftUpLeg  -21.4808 -3.83544 7.07647
LeftLeg  25.9866 5.14464 3.07124
LeftFoot  -12.6405 0.0144001 -5.40413
LeftToes  -6.11857e-011 5.00151e-011 -2.22593e-011
533
root  -22.46 38.7312 31.0793 -175.285 -44.9492 -174.562
RightUpLeg  -19.0644 7.52546 -4.03929
RightLeg  21.9486 3.19595 1.20491
RightFoot  -13.1975 0.0643366 9.49349
RightToes  5.38607e-012 1.2921e-014 -6.02303e-014
Spine  1.55625 -2.70403 -3.39326
Spine1  4.0965 -3.48151 3.06286
HEad  17.2419 -26.987 -0.0161489
LeftShoulder1  1.11387 -1.30929 -17.7612
LeftArm  -15.1055 15.1212 -22.9579
LeftForeArm  13.0335 -3.89336 -6.48496
LeftHand  -0.0827837 4.21398 6.48003
RightShoulder  1.17573 1.76252 16.5052
RightArm  -50.5307 27.999 10.4011
RightForeArm  75.2855 4.6464 -5.32323
RightHand  0.0192108 -5.39218 -47.3868
LeftUpLeg  -21.6349 -3.69703 7.59243
LeftLeg  27.4677 4.71631 3.00696
LeftFoot  -13.6752 -0.0307905 -5.52906
LeftToes  -6.11857e-011 5.00151e-011 -2.22593e-011
534
root  -22.4857 38.539 30.8998 -175.943 -45.0685 -174.073
RightUpLeg  -19.647 7.78806 -3.42481
RightLeg  24.3658 2.86282 1.2001
RightFoot  -14.3371 0.138075 8.99117
RightToes  5.38607e-012 1.2921e-014 -6.02303e-014
Spine  2.0053 -2.59815 -3.7175
Spine1  3.59179 -3.39986 3.20187
HEad  18.7165 -21.7736 -0.204313
LeftShoulder1  1.03214 -1.01205 -17.5089
LeftArm  -16.0098 14.7752 -23.5959
LeftForeArm  11.2352 -5.27565 -6.35599
LeftHand  -0.09171 4.12732 6.92763
RightShoulder  1.07601 1.56878 15.259
RightArm  -50.1019 25.1719 8.11192
RightForeArm  74.9048 8.68324 -3.68141
RightHand  0.278887 -6.03679 -44.7669
LeftUpLeg  -22.0486 -3.57259 8.12735
LeftLeg  29.4933 4.3183 2.99471
LeftFoot  -15.0034 -0.0950966 -5.78151
LeftToes  -6.11857e-011 5.00151e-011 -2.22593e-011
535
root  -22.495 38.2834 30.6875 -176.258 -44.9388 -174.258
RightUpLeg  -20.6325 7.61951 -3.2074
RightLeg  27.849 3.05997 1.52918
RightFoot  -15.6807 0.199295 8.06
RightToes  5.38607e-012 1.2921e-014 -6.02303e-014
Spine  2.53664 -2.53486 -4.40982
Spine1  3.22232 -3.19686 2.52897
HEad  19.3287 -17.6076 0.432553
LeftShoulder1  0.959884 -0.755105 -17.2181
LeftArm  -16.9402 14.4228 -23.7528
LeftForeArm  11.236 -6.79955 -6.24002
LeftHand  -0.123422 3.41686 6.46671
RightShoulder  0.914211 1.02572 14.1537
RightArm  -50.3397 21.8057 6.05796
RightForeArm  75.6364 15.3012 -1.10474
RightHand  0.597046 -7.05181 -39.3613
LeftUpLeg  -22.2921 -3.45157 8.20919
LeftLeg  31.6871 4.03451 3.04844
LeftFoot  -16.5425 -0.179931 -6.13812
LeftToes  -6.11857e-011 5.00151e-011 -2.22593e-011
536
root  -22.4968 37.9774 30.4376 -176.204 -44.3575 -175.05
RightUpLeg  -21.9698 7.10399 -3.41242
RightLeg  32.095 3.88709 2.39062
RightFoot  -17.166 0.251753 7.23073
RightToes  5.38607e-012 1.2921e-014 -6.02303e-014
Spine  3.16479 -2.55997 -5.34775
Spine1  2.70869 -2.94416 1.10475
HEad  20.1677 -13.9968 1.21202
LeftShoulder1  0.890877 -0.397866 -17.6686
LeftArm  -16.8185 13.7177 -22.3102
LeftForeArm  10.8589 -8.06593 -6.37196
LeftHand  -0.128618 3.56601 7.32486
RightShoulder  0.776643 0.70311 12.2001
RightArm  -49.0528 18.1729 4.50232
RightForeArm  74.6092 21.7627 1.33174
RightHand  0.561879 -7.2978 -33.1002
LeftUpLeg  -22.3967 -2.90992 7.86694
LeftLeg  34.0221 3.81898 3.14807
LeftFoot  -18.1921 -0.270136 -6.32871
LeftToes  -6.11857e-011 5.00151e-011 -2.22593e-011
